<svg xmlns="http://www.w3.org/2000/svg" viewBox="0 0 320 240" fill="none" role="img" aria-label="Person hugging a dog">
  <circle cx="160" cy="128" r="96" fill="white" fill-opacity="0.22"/>
  <ellipse cx="78" cy="198" rx="24" ry="10" fill="#4da862" fill-opacity="0.35"/>
  <rect x="62" y="148" width="34" height="52" rx="8" fill="#5fbd74"/>
  <rect x="68" y="138" width="22" height="16" rx="4" fill="#4da862"/>
  <path d="M112 96c10-20 34-28 50-16 18 12 20 38 8 54-12 14-32 18-46 8-16-12-20-32-12-46z" fill="#f0b429"/>
  <circle cx="150" cy="80" r="20" fill="#f0b429"/>
  <circle cx="143" cy="76" r="2.8" fill="#333"/>
  <circle cx="157" cy="76" r="2.8" fill="#333"/>
  <path d="M145 82c2.5 2.5 7 2.5 9.5 0" stroke="#333" stroke-width="1.6" stroke-linecap="round"/>
  <path d="M88 158c12 10 28 12 42 5 10-5 16-14 20-24" stroke="#d4922d" stroke-width="9" stroke-linecap="round"/>
  <circle cx="118" cy="68" r="26" fill="#f2c4a5"/>
  <path d="M94 58c3-12 16-18 28-15 12 3 18 14 16 26-2 12-14 20-28 18-14-2-22-14-16-29z" fill="#5c3d2e"/>
  <path d="M106 92c0 20 10 38 24 48" stroke="#f2c4a5" stroke-width="15" stroke-linecap="round"/>
  <path d="M128 92c0 20-10 38-24 48" stroke="#f2c4a5" stroke-width="15" stroke-linecap="round"/>
  <path d="M134 72c10-2 18 1 22 8" stroke="#5c3d2e" stroke-width="3" stroke-linecap="round"/>
  <path d="M198 44l7-9M206 54l9-2M212 68l9 5" stroke="white" stroke-width="2" stroke-linecap="round" opacity="0.85"/>
  <path d="M68 48l-7 5M58 62l-9 2" stroke="white" stroke-width="2" stroke-linecap="round" opacity="0.85"/>
  <path d="M176 34c0 0 4 8 10 8s10-8 10-8" stroke="#ff782c" stroke-width="3" stroke-linecap="round"/>
  <path d="M188 28l4 6M200 30l2 7" stroke="#ff782c" stroke-width="2.5" stroke-linecap="round"/>
</svg>
